<svg xmlns="http://www.w3.org/2000/svg" width="179" height="49"><defs><style>.a{fill:#fff}.b{fill:#ffdf30}.c{fill:#77bf43}</style></defs><path class="a" d="M41.765 12.125c.134-.063.17-.2.251-.3a6.618 6.618 0 0 1 3.3-2.421 5.669 5.669 0 0 1 2.515-.206 8.036 8.036 0 0 1 2 .457 6.013 6.013 0 0 1 3.114 2.816 9.17 9.17 0 0 1 1.011 3.6c.072.771.072 1.533.072 2.3v10.802c0 .655 0 .655-.671.655h-2.778c-.5 0-.528-.027-.528-.529V17.156a6.708 6.708 0 0 0-.26-1.838 3.276 3.276 0 0 0-3.069-2.332 3.628 3.628 0 0 0-1.163.054 3.291 3.291 0 0 0-2.192 2.045 6.558 6.558 0 0 0-.4 2.421q-.013 5.73-.009 11.452v.368c-.009.475-.018.493-.51.493h-2.867c-.537 0-.546-.009-.546-.538V17.586a8.74 8.74 0 0 0-.233-2.045 3.132 3.132 0 0 0-2.457-2.448 3.774 3.774 0 0 0-1.843-.036 2.975 2.975 0 0 0-2.04 1.758 5.364 5.364 0 0 0-.483 2.233V29.11c0 .744.054.717-.734.717h-3.037c-.43 0-.456-.036-.465-.466V10.339c0-.834.036-.708.7-.717.77-.009 1.539.009 2.3-.009a.492.492 0 0 1 .546.359c.125.323.3.637.456.942s.17.323.412.072a7.523 7.523 0 0 1 1.307-1.076 5.053 5.053 0 0 1 3.481-.727 6.776 6.776 0 0 1 2.738.906 5.581 5.581 0 0 1 1.942 1.856c.02.063.041.153.14.18Zm21.119 15.649a1.1 1.1 0 0 0-.054.493v9.192c0 .619 0 .619-.626.619h-2.953c-.591 0-.591 0-.591-.61v-27.2c0-.682-.018-.646.635-.646.779 0 1.566.009 2.345-.009a.466.466 0 0 1 .51.35c.161.439.34.879.519 1.318.116.287.17.3.394.1a8.363 8.363 0 0 1 4.5-2.125 9.259 9.259 0 0 1 8.153 2.583 10.61 10.61 0 0 1 3.123 6.923 11.167 11.167 0 0 1-.51 4.547 9.7 9.7 0 0 1-6.577 6.63 9.1 9.1 0 0 1-3.069.368 8.265 8.265 0 0 1-4.877-1.668c-.323-.265-.591-.57-.922-.865Zm.009-8.008A9.786 9.786 0 0 0 63 21.38a6.416 6.416 0 0 0 1.128 3.04 5.448 5.448 0 0 0 5.45 2.063 5.324 5.324 0 0 0 3.848-2.681 7.635 7.635 0 0 0 .8-6.457 6.313 6.313 0 0 0-1.745-2.87 5.471 5.471 0 0 0-4.85-1.426 5.206 5.206 0 0 0-4.251 3.578 8.726 8.726 0 0 0-.487 3.138Zm83.366 17.998h-1.978c-.3 0-.34-.054-.215-.332l1.584-3.5q1.4-3.094 2.81-6.188a.552.552 0 0 0 .018-.5c-.152-.314-.3-.637-.447-.951q-1.06-2.206-2.112-4.412c-.922-1.937-1.852-3.865-2.774-5.8-.886-1.865-1.781-3.722-2.667-5.587-.089-.2-.179-.395-.26-.592-.089-.233-.063-.269.206-.287h.161c1.253 0 2.506.009 3.758-.009a.572.572 0 0 1 .609.395c.456 1 .949 2 1.423 3 .931 1.964 1.852 3.919 2.783 5.883.528 1.112 1.056 2.215 1.584 3.318.027.063.054.135.125.152.1.018.134-.081.161-.143.3-.646.617-1.291.913-1.937.528-1.121 1.047-2.251 1.566-3.372.832-1.794 1.664-3.6 2.506-5.39.242-.529.5-1.049.734-1.578a.481.481 0 0 1 .5-.314c1.28.009 2.559 0 3.839.009.394 0 .43.063.268.421-.474 1.031-.949 2.054-1.423 3.085-.984 2.143-1.978 4.287-2.962 6.43l-4.081 8.851q-1.235 2.663-2.452 5.327c-.537 1.175-1.074 2.35-1.611 3.533-.027.063-.063.117-.089.179a.47.47 0 0 1-.528.332c-.652-.032-1.305-.014-1.949-.023ZM7.438 30.239a8.3 8.3 0 0 1-5.02-1.48 6.345 6.345 0 0 1-2.327-2.887c-.152-.377-.134-.413.224-.574.9-.413 1.817-.825 2.72-1.238.43-.2.447-.233.68.206a4.1 4.1 0 0 0 .617.9 3.777 3.777 0 0 0 2.5 1.184 5.047 5.047 0 0 0 2.306-.211 3.609 3.609 0 0 0 1.807-1.361 1.558 1.558 0 0 0-.3-2.17 5.272 5.272 0 0 0-2.2-1.049c-1.172-.3-2.362-.538-3.508-.951a10 10 0 0 1-2.681-1.369 4.811 4.811 0 0 1-1.521-6.065 6.077 6.077 0 0 1 2.094-2.421 8.021 8.021 0 0 1 4.895-1.471 7.986 7.986 0 0 1 4.77 1.614 5.592 5.592 0 0 1 1.96 2.619 3.807 3.807 0 0 1 .152.547c.072.3.045.359-.251.43-1.047.26-2.094.5-3.141.762-.2.045-.331.009-.4-.206a2.192 2.192 0 0 0-.233-.511 2.936 2.936 0 0 0-2.3-1.516 3.972 3.972 0 0 0-2.613.466 2.211 2.211 0 0 0-1.11 1.282 1.429 1.429 0 0 0 .3 1.363 3.02 3.02 0 0 0 1.244.87 13.849 13.849 0 0 0 1.888.565 20.659 20.659 0 0 1 4.441 1.572 6.9 6.9 0 0 1 1.8 1.291 4.3 4.3 0 0 1 1.244 3.022 5.716 5.716 0 0 1-.349 2.421 6.487 6.487 0 0 1-3.1 3.327 9.556 9.556 0 0 1-4.588 1.039Zm163.537 0a8.363 8.363 0 0 1-5.083-1.462 6.179 6.179 0 0 1-2.354-2.959c-.134-.35-.134-.35.215-.511.895-.4 1.79-.807 2.685-1.22.5-.224.5-.224.8.26.116.2.233.395.367.583a3.171 3.171 0 0 0 1.5 1.121 5.245 5.245 0 0 0 3.714.009 3.374 3.374 0 0 0 1.611-1.3 1.519 1.519 0 0 0-.26-2.107 5.179 5.179 0 0 0-2.264-1.094c-1.092-.278-2.2-.5-3.275-.87a11.153 11.153 0 0 1-2.819-1.39 4.861 4.861 0 0 1-1.4-6.5 6.792 6.792 0 0 1 3.5-2.923 8.134 8.134 0 0 1 7.481.619 5.618 5.618 0 0 1 2.631 3.309c.179.592.17.6-.438.753l-2.783.673c-.376.09-.376.081-.51-.251a3.023 3.023 0 0 0-2.819-2 3.909 3.909 0 0 0-2.291.484 2.3 2.3 0 0 0-1.119 1.273 1.365 1.365 0 0 0 .215 1.264 2.631 2.631 0 0 0 .975.825 8.383 8.383 0 0 0 1.906.646 24.723 24.723 0 0 1 3.884 1.229 8.691 8.691 0 0 1 2.6 1.614 4.145 4.145 0 0 1 1.289 2.5 5.794 5.794 0 0 1-.298 3.025 6.5 6.5 0 0 1-3.09 3.342 9.785 9.785 0 0 1-4.57 1.058ZM82.678 19.685v-9.434c0-.637 0-.637.653-.637.779 0 1.566.009 2.345 0a.442.442 0 0 1 .483.323c.161.475.349.933.528 1.4.125.332.17.341.385.072a6.148 6.148 0 0 1 1.45-1.273 6.4 6.4 0 0 1 2.72-.933 12.057 12.057 0 0 1 3.928.251c.367.072.385.108.3.457-.286 1.049-.573 2.107-.868 3.157-.107.386-.152.413-.5.251-1.861-.879-4.528.027-5.682 1.22a5.028 5.028 0 0 0-1.36 2.3 4.752 4.752 0 0 0-.143 1.121v3.928c-.009 2.457-.009 4.914-.018 7.363v.126c-.009.421-.045.457-.474.457h-3.23c-.474 0-.5-.027-.5-.5q-.021-4.838-.017-9.649Zm-63.526 0v-9.47c0-.592 0-.592.6-.592h3.069c.438 0 .456.027.474.448v.161q.013 9.47.018 18.94c0 .646 0 .655-.635.655h-3.033c-.474 0-.5-.018-.5-.5q.011-4.831.007-9.642Zm2.031-14.322a2.625 2.625 0 0 1-2.649-2.735 2.671 2.671 0 0 1 5.342.063 2.621 2.621 0 0 1-2.693 2.672Z"/><path class="b" d="M142.438 33.907a15.409 15.409 0 0 0-1.029-4.161 9.084 9.084 0 0 0-5.843-5.372 8.229 8.229 0 0 0-1.87-.3l-1.289-.081a130.133 130.133 0 0 0-4.233-.161c-1.369-.027-2.747-.009-4.116-.018a7.761 7.761 0 0 1-2.031-.278 5.61 5.61 0 0 1-3.472-2.888 7.7 7.7 0 0 1-1.01-3.555 8.133 8.133 0 0 1 1.459-5.282 5.4 5.4 0 0 1 3.1-1.991 5.79 5.79 0 0 1 1.521-.179q7.571.013 15.15.009c.707 0 .7 0 .519.673a7.827 7.827 0 0 1-1.4 2.941 4.471 4.471 0 0 1-3.66 1.82c-3.195-.009-6.38 0-9.575 0a1.492 1.492 0 0 0-1.656 1.408 2.312 2.312 0 0 0-.009.96 1.673 1.673 0 0 0 1.62 1.273h10.011a6.186 6.186 0 0 1 1.521.17 8 8 0 0 1 3.991 2.17 7.345 7.345 0 0 1 1.593 2.645 13.541 13.541 0 0 1 .653 3.04 31.249 31.249 0 0 1 .143 4.484c-.017.88-.044 1.777-.088 2.673Z"/><path class="c" d="M114.008 15.389a1.484 1.484 0 0 1 .036.439 9.124 9.124 0 0 0 2.166 6.035 8.936 8.936 0 0 0 3.123 2.251 14.259 14.259 0 0 0 4.206 1.085 23.693 23.693 0 0 0 2.98.152c1.87-.009 3.741-.018 5.611 0a9.942 9.942 0 0 1 5.244 1.516 8.016 8.016 0 0 1 3.553 4.932 12.421 12.421 0 0 1 .358 4.448l-.107 1.166a.52.52 0 0 1-.107.377c-.134-.045-.134-.17-.152-.26-.161-.708-.322-1.417-.483-2.134a9.983 9.983 0 0 0-.743-2.26 4.58 4.58 0 0 0-2.273-2.152 10.557 10.557 0 0 0-3.356-.843 34.941 34.941 0 0 0-4.107-.152c-1.011.009-2.022.009-3.025 0a21.045 21.045 0 0 0-2.13.126 13.593 13.593 0 0 1-2.416-.036 12.521 12.521 0 0 1-3.034-.637 8.692 8.692 0 0 1-3.114-1.829 8.378 8.378 0 0 1-2.371-4.062 13.189 13.189 0 0 1-.412-3.076 23.457 23.457 0 0 1 .43-4.744c.018-.09.045-.188.072-.278-.012-.019.024-.037.051-.064Z"/><path class="a" d="M113.99 15.586a19.955 19.955 0 0 0-.438 3.166c-.018.475-.081.942-.063 1.417a15.7 15.7 0 0 0 .385 3.166 8.833 8.833 0 0 0 .984 2.475.45.45 0 0 1-.036.583 9.8 9.8 0 0 1-6.524 3.82 9.471 9.471 0 0 1-7.517-2.081 10.459 10.459 0 0 1-3.821-6.735 10.536 10.536 0 0 1 .922-6.385 9.808 9.808 0 0 1 7.606-5.757 9.457 9.457 0 0 1 7.92 2.314 10.4 10.4 0 0 1 3.571 6.78 11.246 11.246 0 0 1-.107 3.506.548.548 0 0 1-.027.117c-.045.117-.009.3-.17.332-.125.027-.2-.117-.286-.206a8.336 8.336 0 0 1-2.049-3.668 9.529 9.529 0 0 1-.35-2.844Zm-6.828 10.968a4.015 4.015 0 0 0 1.065-.161 5.685 5.685 0 0 0 3.374-2.6 7.573 7.573 0 0 0 .9-6.062 6.421 6.421 0 0 0-2.515-3.8 5.049 5.049 0 0 0-3.526-1.013 5.539 5.539 0 0 0-3.83 2.17 7.2 7.2 0 0 0-1.539 5.219 7.027 7.027 0 0 0 1.888 4.448 5.381 5.381 0 0 0 4.183 1.799ZM5.039 44.454a.972.972 0 0 0-.376-.825 4.472 4.472 0 0 0-1.36-.583 6.728 6.728 0 0 1-1.566-.664 2.087 2.087 0 0 1-1.11-1.82 2.01 2.01 0 0 1 .8-1.623 3.259 3.259 0 0 1 2.076-.637 3.534 3.534 0 0 1 1.512.314 2.452 2.452 0 0 1 1.056.888 2.294 2.294 0 0 1 .374 1.12.148.148 0 0 1-.152.161h-1.11a.155.155 0 0 1-.152-.135 1.255 1.255 0 0 0-.394-.861 1.641 1.641 0 0 0-1.145-.359 1.7 1.7 0 0 0-1.074.3 1 1 0 0 0-.385.825.883.883 0 0 0 .412.744 4.788 4.788 0 0 0 1.36.583 6.148 6.148 0 0 1 1.521.646 2.474 2.474 0 0 1 .841.825 2.155 2.155 0 0 1 .268 1.094 1.947 1.947 0 0 1-.779 1.623 3.36 3.36 0 0 1-2.111.599 3.989 3.989 0 0 1-1.62-.323 2.657 2.657 0 0 1-1.145-.907 2.185 2.185 0 0 1-.4-1.184.146.146 0 0 1 .152-.152h1.11a.148.148 0 0 1 .152.135 1.288 1.288 0 0 0 .456.942 2.019 2.019 0 0 0 1.315.377 1.762 1.762 0 0 0 1.11-.3 1.027 1.027 0 0 0 .364-.803Zm3.875-5.525a.711.711 0 0 1 .2-.52.763.763 0 0 1 .564-.206.785.785 0 0 1 .573.206.711.711 0 0 1 .2.52.69.69 0 0 1-.2.511.771.771 0 0 1-.573.206.749.749 0 0 1-.564-.206.69.69 0 0 1-.2-.511Zm1.289 7.623H9.145a.151.151 0 0 1-.152-.152v-5.749a.151.151 0 0 1 .152-.152h1.056a.151.151 0 0 1 .152.152v5.748a.157.157 0 0 1-.15.153Zm4.259-5.913.009.161a.149.149 0 0 0 .242.108 2.208 2.208 0 0 1 1.521-.52 1.693 1.693 0 0 1 1.548.735.151.151 0 0 0 .242.018 2.154 2.154 0 0 1 1.718-.762 1.883 1.883 0 0 1 1.485.556 2.466 2.466 0 0 1 .5 1.632v3.829a.151.151 0 0 1-.152.152h-1.054a.151.151 0 0 1-.152-.152v-3.781a1.187 1.187 0 0 0-.251-.843 1.349 1.349 0 0 0-1.593-.018 1.317 1.317 0 0 0-.4.628.1.1 0 0 0-.009.045l.009 3.973a.151.151 0 0 1-.152.152h-1.059a.151.151 0 0 1-.152-.152v-3.83a.971.971 0 0 0-1.092-1.067 1.193 1.193 0 0 0-1.136.628.169.169 0 0 0-.018.072v4.2a.151.151 0 0 1-.152.152h-1.056a.151.151 0 0 1-.152-.152v-5.764a.151.151 0 0 1 .152-.152h.993a.181.181 0 0 1 .161.152Zm15.294 2.954a3.641 3.641 0 0 1-.636 2.246 2.034 2.034 0 0 1-1.709.834 2.12 2.12 0 0 1-1.351-.43.148.148 0 0 0-.242.117v2.376a.157.157 0 0 1-.152.152H24.61a.157.157 0 0 1-.152-.152v-8.08a.157.157 0 0 1 .152-.152h.966a.155.155 0 0 1 .152.135l.018.152a.151.151 0 0 0 .251.1 2.028 2.028 0 0 1 1.4-.5 2.077 2.077 0 0 1 1.736.825 3.674 3.674 0 0 1 .626 2.287v.1Zm-1.351-.117a2.5 2.5 0 0 0-.36-1.437 1.158 1.158 0 0 0-1.029-.529 1.237 1.237 0 0 0-1.172.655.278.278 0 0 0-.018.072v2.602a.169.169 0 0 0 .018.072 1.263 1.263 0 0 0 1.19.673 1.16 1.16 0 0 0 1.011-.52 2.814 2.814 0 0 0 .36-1.588Zm5.145 3.076h-1.056a.151.151 0 0 1-.152-.152v-8.3a.151.151 0 0 1 .152-.152h1.056a.151.151 0 0 1 .152.152v8.3a.157.157 0 0 1-.152.152Zm2.971-7.623a.711.711 0 0 1 .2-.52.763.763 0 0 1 .564-.206.785.785 0 0 1 .573.206.711.711 0 0 1 .2.52.69.69 0 0 1-.2.511.771.771 0 0 1-.573.206.736.736 0 0 1-.564-.206.727.727 0 0 1-.2-.511Zm1.289 7.623h-1.056a.157.157 0 0 1-.152-.152v-5.749a.157.157 0 0 1 .152-.152h1.056a.157.157 0 0 1 .152.152v5.748a.146.146 0 0 1-.152.153Zm3.454-.152v-4.744a.157.157 0 0 0-.152-.152h-.617a.157.157 0 0 1-.152-.152v-.713a.157.157 0 0 1 .152-.152h.617a.157.157 0 0 0 .152-.152v-.4a2.079 2.079 0 0 1 .555-1.551 2.137 2.137 0 0 1 1.566-.545 3.209 3.209 0 0 1 .635.072.154.154 0 0 1 .116.152l-.027.771a.149.149 0 0 1-.17.143 4.325 4.325 0 0 0-.358-.018.876.876 0 0 0-.975 1v.386a.157.157 0 0 0 .152.152h.931a.157.157 0 0 1 .152.152v.708a.157.157 0 0 1-.152.152h-.931a.157.157 0 0 0-.152.152v4.748a.157.157 0 0 1-.152.152h-1.056a.165.165 0 0 1-.134-.161Zm7.181-2.261 1.056-3.524a.153.153 0 0 1 .143-.108h1.128a.147.147 0 0 1 .143.2l-2.34 6.769a1.944 1.944 0 0 1-1.879 1.525 2.33 2.33 0 0 1-.537-.072.162.162 0 0 1-.116-.143v-.78a.153.153 0 0 1 .161-.152l.1.009a1.3 1.3 0 0 0 .77-.188 1.242 1.242 0 0 0 .412-.628l.179-.466a.184.184 0 0 0 0-.1l-2.031-5.766a.147.147 0 0 1 .143-.2h1.136a.153.153 0 0 1 .143.108l1.1 3.533a.152.152 0 0 0 .289-.017Zm4.658-5.21a.711.711 0 0 1 .2-.52.763.763 0 0 1 .564-.206.785.785 0 0 1 .573.206.711.711 0 0 1 .2.52.69.69 0 0 1-.2.511.771.771 0 0 1-.573.206.749.749 0 0 1-.564-.206.727.727 0 0 1-.2-.511Zm1.289 7.623h-1.056a.151.151 0 0 1-.152-.152v-5.749a.151.151 0 0 1 .152-.152h1.056a.151.151 0 0 1 .152.152v5.748a.146.146 0 0 1-.152.153Zm4.241-5.913.009.206a.153.153 0 0 0 .251.108 2.182 2.182 0 0 1 1.53-.565c1.262 0 1.9.717 1.924 2.161v3.847a.157.157 0 0 1-.152.152h-1.056a.157.157 0 0 1-.152-.152v-3.763a1.211 1.211 0 0 0-.251-.852 1.042 1.042 0 0 0-.814-.278 1.287 1.287 0 0 0-1.2.708.262.262 0 0 0-.018.081v4.117a.157.157 0 0 1-.152.152h-1.055a.157.157 0 0 1-.152-.152V40.66a.157.157 0 0 1 .152-.152h.984a.142.142 0 0 1 .152.131Zm6.202 2.846a3.562 3.562 0 0 1 .662-2.251 2.112 2.112 0 0 1 1.754-.843 2.007 2.007 0 0 1 1.4.493.152.152 0 0 0 .251-.1l.018-.152a.148.148 0 0 1 .152-.135h.94a.151.151 0 0 1 .152.152v5.721a2.461 2.461 0 0 1-.743 1.883 2.813 2.813 0 0 1-2 .691 3.159 3.159 0 0 1-1.3-.278 2.387 2.387 0 0 1-.876-.627.149.149 0 0 1 0-.188l.456-.583a.15.15 0 0 1 .224-.018 1.9 1.9 0 0 0 1.432.619 1.506 1.506 0 0 0 1.065-.368 1.4 1.4 0 0 0 .394-1.076v-.063a.148.148 0 0 0-.242-.117 2.044 2.044 0 0 1-1.324.43 2.114 2.114 0 0 1-1.735-.836 3.669 3.669 0 0 1-.68-2.354Zm1.351.117a2.483 2.483 0 0 0 .367 1.435 1.191 1.191 0 0 0 1.029.52 1.313 1.313 0 0 0 1.2-.664.134.134 0 0 0 .018-.081v-2.573a.263.263 0 0 0-.018-.081 1.3 1.3 0 0 0-1.181-.655 1.193 1.193 0 0 0-1.038.529 2.777 2.777 0 0 0-.377 1.57Zm12.459.08v2.717a.157.157 0 0 1-.152.152h-1.11a.157.157 0 0 1-.152-.152v-7.837a.157.157 0 0 1 .152-.152h2.962a3.152 3.152 0 0 1 2.166.708 2.393 2.393 0 0 1 .805 1.883 2.308 2.308 0 0 1-.787 1.865 3.254 3.254 0 0 1-2.192.664h-1.53a.159.159 0 0 0-.162.152Zm0-1.444a.157.157 0 0 0 .152.152h1.548a1.626 1.626 0 0 0 1.145-.359 1.288 1.288 0 0 0 .394-1.022 1.428 1.428 0 0 0-.4-1.058 1.561 1.561 0 0 0-1.1-.4h-1.589a.157.157 0 0 0-.152.152Zm10.271-.663a.155.155 0 0 1-.17.152 2.7 2.7 0 0 0-.385-.018 1.251 1.251 0 0 0-1.244.682.169.169 0 0 0-.018.072v3.955a.157.157 0 0 1-.152.152H85.9a.157.157 0 0 1-.152-.152v-5.749a.157.157 0 0 1 .152-.152h1a.155.155 0 0 1 .152.143l.009.126a.15.15 0 0 0 .26.1 1.484 1.484 0 0 1 1.128-.475 1.466 1.466 0 0 1 .367.045.151.151 0 0 1 .116.143Zm1.754 1.901a3.612 3.612 0 0 1 .349-1.605 2.546 2.546 0 0 1 .984-1.094 2.811 2.811 0 0 1 1.459-.386 2.633 2.633 0 0 1 1.987.789 3.112 3.112 0 0 1 .823 2.089l.009.323a3.638 3.638 0 0 1-.34 1.6 2.593 2.593 0 0 1-.984 1.094 2.792 2.792 0 0 1-1.477.386 2.65 2.65 0 0 1-2.049-.852 3.278 3.278 0 0 1-.77-2.278v-.063Zm1.351.117a2.423 2.423 0 0 0 .385 1.462 1.267 1.267 0 0 0 1.074.529 1.226 1.226 0 0 0 1.065-.539 2.722 2.722 0 0 0 .385-1.569 2.431 2.431 0 0 0-.394-1.453 1.321 1.321 0 0 0-2.121-.009 2.644 2.644 0 0 0-.394 1.579Zm9.235 1.99a1.22 1.22 0 0 0 .841-.3 1.025 1.025 0 0 0 .34-.61.145.145 0 0 1 .143-.126h.984a.156.156 0 0 1 .152.17 1.9 1.9 0 0 1-.34.879 2.349 2.349 0 0 1-.895.771 2.673 2.673 0 0 1-1.217.287 2.6 2.6 0 0 1-2.013-.815 3.282 3.282 0 0 1-.743-2.269v-.143a3.212 3.212 0 0 1 .734-2.215 2.552 2.552 0 0 1 2.013-.834 2.461 2.461 0 0 1 1.754.628 2.171 2.171 0 0 1 .7 1.5.148.148 0 0 1-.152.161h-.975a.154.154 0 0 1-.152-.126 1.252 1.252 0 0 0-.34-.726 1.131 1.131 0 0 0-.841-.332 1.216 1.216 0 0 0-1.02.475 2.475 2.475 0 0 0-.367 1.453v.215a2.457 2.457 0 0 0 .358 1.471 1.217 1.217 0 0 0 1.036.486Zm7.508 1.086a2.8 2.8 0 0 1-2.094-.816 2.941 2.941 0 0 1-.805-2.17v-.17a3.663 3.663 0 0 1 .349-1.623 2.682 2.682 0 0 1 .975-1.112 2.538 2.538 0 0 1 1.4-.395 2.355 2.355 0 0 1 1.906.789 3.359 3.359 0 0 1 .671 2.233v.395a.157.157 0 0 1-.152.152h-3.619a.159.159 0 0 0-.152.179 1.743 1.743 0 0 0 .483 1.013 1.524 1.524 0 0 0 1.1.439 1.829 1.829 0 0 0 1.423-.637.154.154 0 0 1 .215-.009l.519.5a.151.151 0 0 1 .018.2 2.4 2.4 0 0 1-.895.735 2.929 2.929 0 0 1-1.342.297Zm-.161-5.183a1.152 1.152 0 0 0-.9.395 1.975 1.975 0 0 0-.412.906.152.152 0 0 0 .143.179h2.407v-.1a1.616 1.616 0 0 0-.37-1.027 1.08 1.08 0 0 0-.868-.354Zm8.376 3.425a.621.621 0 0 0-.3-.556 3 3 0 0 0-.993-.332 5.318 5.318 0 0 1-1.154-.368 1.552 1.552 0 0 1-1.02-1.426 1.62 1.62 0 0 1 .662-1.309 2.6 2.6 0 0 1 1.673-.529 2.713 2.713 0 0 1 1.754.538 1.718 1.718 0 0 1 .653 1.139.238.238 0 0 1-.233.26h-.913a.221.221 0 0 1-.215-.188.857.857 0 0 0-.268-.466 1.126 1.126 0 0 0-.77-.26 1.217 1.217 0 0 0-.725.206.646.646 0 0 0-.277.556.56.56 0 0 0 .26.484 3.594 3.594 0 0 0 1.056.35 5.074 5.074 0 0 1 1.253.421 1.742 1.742 0 0 1 .671.583 1.512 1.512 0 0 1 .224.825 1.563 1.563 0 0 1-.671 1.318 2.846 2.846 0 0 1-1.772.5 3.121 3.121 0 0 1-1.324-.269 2.176 2.176 0 0 1-.9-.735 1.722 1.722 0 0 1-.3-.753.233.233 0 0 1 .233-.26h.859a.239.239 0 0 1 .233.2.887.887 0 0 0 .34.547 1.425 1.425 0 0 0 .886.26 1.381 1.381 0 0 0 .814-.206.647.647 0 0 0 .264-.53Zm7.239 0a.621.621 0 0 0-.3-.556 3 3 0 0 0-.993-.332 5.318 5.318 0 0 1-1.154-.368 1.552 1.552 0 0 1-1.02-1.426 1.62 1.62 0 0 1 .662-1.309 2.6 2.6 0 0 1 1.673-.529 2.713 2.713 0 0 1 1.754.538 1.718 1.718 0 0 1 .653 1.139.238.238 0 0 1-.233.26h-.913a.221.221 0 0 1-.215-.188.857.857 0 0 0-.268-.466 1.126 1.126 0 0 0-.77-.26 1.217 1.217 0 0 0-.725.206.646.646 0 0 0-.277.556.56.56 0 0 0 .26.484 3.594 3.594 0 0 0 1.056.35 5.074 5.074 0 0 1 1.253.421 1.742 1.742 0 0 1 .671.583 1.512 1.512 0 0 1 .224.825 1.563 1.563 0 0 1-.671 1.318 2.847 2.847 0 0 1-1.772.5 3.121 3.121 0 0 1-1.324-.269 2.176 2.176 0 0 1-.9-.735 1.722 1.722 0 0 1-.3-.753.233.233 0 0 1 .233-.26h.859a.239.239 0 0 1 .233.2.887.887 0 0 0 .34.547 1.425 1.425 0 0 0 .886.26 1.381 1.381 0 0 0 .814-.206.624.624 0 0 0 .264-.53Zm6.527 1.758a2.8 2.8 0 0 1-2.094-.816 2.941 2.941 0 0 1-.805-2.17v-.17a3.663 3.663 0 0 1 .349-1.623 2.682 2.682 0 0 1 .975-1.112 2.538 2.538 0 0 1 1.4-.395 2.355 2.355 0 0 1 1.906.789 3.359 3.359 0 0 1 .671 2.233v.314a.231.231 0 0 1-.233.233h-3.454a.225.225 0 0 0-.224.269 1.659 1.659 0 0 0 .465.915 1.524 1.524 0 0 0 1.1.439 1.809 1.809 0 0 0 1.369-.574.227.227 0 0 1 .322-.009l.412.395a.225.225 0 0 1 .018.314 2.5 2.5 0 0 1-.841.673 2.929 2.929 0 0 1-1.336.295Zm-.161-5.183a1.152 1.152 0 0 0-.9.395 1.779 1.779 0 0 0-.385.816.228.228 0 0 0 .224.278h2.309v-.1a1.616 1.616 0 0 0-.374-1.036 1.089 1.089 0 0 0-.877-.354Zm8.373 3.425a.621.621 0 0 0-.3-.556 3 3 0 0 0-.993-.332 5.318 5.318 0 0 1-1.154-.368 1.552 1.552 0 0 1-1.02-1.426 1.62 1.62 0 0 1 .662-1.309 2.6 2.6 0 0 1 1.673-.529 2.713 2.713 0 0 1 1.754.538 1.684 1.684 0 0 1 .653 1.139.224.224 0 0 1-.224.251h-.913a.221.221 0 0 1-.215-.188.858.858 0 0 0-.268-.466 1.126 1.126 0 0 0-.77-.26 1.217 1.217 0 0 0-.725.206.646.646 0 0 0-.277.556.559.559 0 0 0 .26.484 3.594 3.594 0 0 0 1.056.35 5.074 5.074 0 0 1 1.253.421 1.742 1.742 0 0 1 .671.583 1.512 1.512 0 0 1 .224.825 1.563 1.563 0 0 1-.671 1.318 2.846 2.846 0 0 1-1.772.5 3.121 3.121 0 0 1-1.316-.266 2.176 2.176 0 0 1-.9-.735 1.8 1.8 0 0 1-.3-.762.224.224 0 0 1 .224-.251h.877a.238.238 0 0 1 .224.188.908.908 0 0 0 .34.556 1.425 1.425 0 0 0 .886.26 1.381 1.381 0 0 0 .814-.206.634.634 0 0 0 .247-.521Z"/></svg>